# xmcd CD database file
#
# Track frame offsets:
#	150
#	23115
#	43427
#	67528
#	92478
#	116998
#	140670
#	168378
#
# Disc length: 2433 seconds
#
# Revision: 0
# Processed by: cddbd v1.5.2PL0 Copyright (c) Steve Scherf et al.
# Submitted via: CDex 1.70beta2
#
DISCID=6a097f08
DTITLE=Gypsy Tribe - Deja Vu
DYEAR=2007
DGENRE=Salsa
TTITLE0=La Alba
TTITLE1=Sheek
TTITLE2=Azucar
TTITLE3=Deja Vu
TTITLE4=Sunset
TTITLE5=Hwy 1
TTITLE6=Caspian Breeze
TTITLE7=El Jardin
EXTD=YEAR: 2007
EXTT0=
EXTT1=
EXTT2=
EXTT3=
EXTT4=
EXTT5=
EXTT6=
EXTT7=
PLAYORDER=
